<svg id="visual" viewBox="0 0 900 600" width="900" height="600" xmlns="http://www.w3.org/2000/svg" xmlns:xlink="http://www.w3.org/1999/xlink" version="1.1"><rect x="0" y="0" width="900" height="600" fill="#020015"></rect><defs><linearGradient id="grad1_0" x1="33.3%" y1="100%" x2="100%" y2="0%"><stop offset="20%" stop-color="#020015" stop-opacity="1"></stop><stop offset="80%" stop-color="#020015" stop-opacity="1"></stop></linearGradient></defs><defs><linearGradient id="grad2_0" x1="0%" y1="100%" x2="66.7%" y2="0%"><stop offset="20%" stop-color="#020015" stop-opacity="1"></stop><stop offset="80%" stop-color="#020015" stop-opacity="1"></stop></linearGradient></defs><g transform="translate(900, 600)"><path d="M-405.6 0C-314.5 -24 -223.3 -48.1 -200.9 -116C-178.5 -183.9 -224.8 -295.7 -202.8 -351.3C-180.8 -406.9 -90.4 -406.2 0 -405.6L0 0Z" fill="#fff954"></path></g><g transform="translate(0, 0)"><path d="M405.6 0C314 23.8 222.4 47.6 200.1 115.5C177.7 183.4 224.6 295.6 202.8 351.3C181 407 90.5 406.3 0 405.6L0 0Z" fill="#fff954"></path></g></svg>